C:\Users\r0593348\3dpredictsim\Results\Batchsim_tmt_linear_v2\Pog_s1_tmt_bCst_d02_k250_ig24_pas_GRF.mot
nRows=17
nColumns=19

name C:\Users\r0593348\3dpredictsim\Results\Batchsim_tmt_linear_v2\Pog_s1_tmt_bCst_d02_k250_ig24_pas_GRF.mot
datacolumns 19
datarows 17
range 0.5521086659 0.7287834390
endheader
time 	ground_force_vx	ground_force_vy	ground_force_vz	ground_force_px	ground_force_py	ground_force_pz	1_ground_force_vx	1_ground_force_vy	1_ground_force_vz	1_ground_force_px	1_ground_force_py	1_ground_force_pz	ground_torque_x	ground_torque_y	ground_torque_z	1_ground_torque_x	1_ground_torque_y	1_ground_torque_z
        0.5521086659	       98.4972507240	      414.6304038785	       -1.7313794112	        0.3374985782	        0.0000000000	        0.0423444377	      -66.7584744240	       55.4007904523	      -21.6390957831	        0.8571892938	        0.0000000000	       -0.0445359804	        0.0000000000	        0.0000000000	        0.0000000000	        0.0000000000	        0.0000000000	        0.0000000000	
        0.5631508392	       58.3303593080	      301.0106589401	        4.9466997493	        0.3579528773	        0.0000000000	        0.0383502754	     -122.3638162879	      134.2007400576	      -59.0724528151	        0.8641858119	        0.0000000000	       -0.0426726703	        0.0000000000	        0.0000000000	        0.0000000000	        0.0000000000	        0.0000000000	        0.0000000000	
        0.5741930125	       23.6393476127	      199.5417533486	        9.5729730292	        0.3895510816	        0.0000000000	        0.0309501323	      -72.1654263036	      294.4455487398	      -24.3913487561	        0.8699773273	        0.0000000000	       -0.0406360815	        0.0000000000	        0.0000000000	        0.0000000000	        0.0000000000	        0.0000000000	        0.0000000000	
        0.5852351858	        3.2850875645	      148.7609275084	       11.8734751101	        0.4113600701	        0.0000000000	        0.0237155102	      -73.9702355746	      500.0047796175	       -0.6841962945	        0.8751437718	        0.0000000000	       -0.0410970921	        0.0000000000	        0.0000000000	        0.0000000000	        0.0000000000	        0.0000000000	        0.0000000000	
        0.5962773592	       -0.6202912870	      118.0041047527	       10.7662254834	        0.4111088866	        0.0000000000	        0.0239675860	     -112.2331845136	      775.0307656478	       13.6111560474	        0.8856677843	        0.0000000000	       -0.0439441077	        0.0000000000	        0.0000000000	        0.0000000000	        0.0000000000	        0.0000000000	        0.0000000000	
        0.6073195325	       -3.1314289283	       77.2258400081	       10.0906647946	        0.4116541462	        0.0000000000	        0.0240811911	     -144.4421439896	      952.8749644889	       18.9388705409	        0.8927528072	        0.0000000000	       -0.0458474321	        0.0000000000	        0.0000000000	        0.0000000000	        0.0000000000	        0.0000000000	        0.0000000000	
        0.6183617058	       -7.1743902104	       31.8959022624	        6.3722441227	        0.4115819772	        0.0000000000	        0.0241656572	     -148.0132443043	      990.0548229685	       20.4487181451	        0.8976425108	        0.0000000000	       -0.0470207345	        0.0000000000	        0.0000000000	        0.0000000000	        0.0000000000	        0.0000000000	        0.0000000000	
        0.6294038791	        0.0785586620	       -0.0787334830	       -0.0051373999	        0.0000000000	        0.0000000000	        0.0000000000	     -136.3597877230	      949.3222761455	       20.6869934203	        0.9014616746	        0.0000000000	       -0.0477927813	        0.0000000000	        0.0000000000	        0.0000000000	        0.0000000000	        0.0000000000	        0.0000000000	
        0.6404460524	        0.0000387810	       -0.0000316829	        0.0000014130	        0.0000000000	        0.0000000000	        0.0000000000	     -118.6118471391	      882.8914777180	       19.7049979740	        0.9053401093	        0.0000000000	       -0.0484014966	        0.0000000000	        0.0000000000	        0.0000000000	        0.0000000000	        0.0000000000	        0.0000000000	
        0.6514882257	        0.0000359993	       -0.0000259414	        0.0000018265	        0.0000000000	        0.0000000000	        0.0000000000	     -103.7334388843	      825.1690945954	       18.7223480696	        0.9099252946	        0.0000000000	       -0.0491176316	        0.0000000000	        0.0000000000	        0.0000000000	        0.0000000000	        0.0000000000	        0.0000000000	
        0.6625303991	        0.0005239163	       -0.0003388601	        0.0000304016	        0.0000000000	        0.0000000000	        0.0000000000	      -95.1281057325	      784.0182080677	       18.2530854369	        0.9156772523	        0.0000000000	       -0.0494789610	        0.0000000000	        0.0000000000	        0.0000000000	        0.0000000000	        0.0000000000	        0.0000000000	
        0.6735725724	        0.0068425348	       -0.0040568435	        0.0004211106	        0.0000000000	        0.0000000000	        0.0000000000	      -85.4469624840	      745.0967244465	       17.6098180950	        0.9215249273	        0.0000000000	       -0.0495739274	        0.0000000000	        0.0000000000	        0.0000000000	        0.0000000000	        0.0000000000	        0.0000000000	
        0.6846147457	       -0.0402346537	        0.0222255272	       -0.0025543753	        0.0000000000	        0.0000000000	        0.0000000000	      -76.2537992800	      707.7182857168	       17.4538981146	        0.9271714643	        0.0000000000	       -0.0495625720	        0.0000000000	        0.0000000000	        0.0000000000	        0.0000000000	        0.0000000000	        0.0000000000	
        0.6956569190	       -0.0278542540	        0.0144835636	       -0.0018040785	        0.0000000000	        0.0000000000	        0.0000000000	      -68.0978125956	      676.3958763468	       17.0517293974	        0.9326109111	        0.0000000000	       -0.0494279122	        0.0000000000	        0.0000000000	        0.0000000000	        0.0000000000	        0.0000000000	        0.0000000000	
        0.7066990923	       -0.0195188394	        0.0096290264	       -0.0012781487	        0.0000000000	        0.0000000000	        0.0000000000	      -60.0189046193	      652.1524840636	       16.9717088624	        0.9378580917	        0.0000000000	       -0.0492676080	        0.0000000000	        0.0000000000	        0.0000000000	        0.0000000000	        0.0000000000	        0.0000000000	
        0.7177412656	       -0.0173491326	        0.0081735494	       -0.0011424402	        0.0000000000	        0.0000000000	        0.0000000000	      -53.6406712339	      633.7585665825	       17.3407200686	        0.9428803707	        0.0000000000	       -0.0490909005	        0.0000000000	        0.0000000000	        0.0000000000	        0.0000000000	        0.0000000000	        0.0000000000	
        0.7287834390	       -0.0201720856	        0.0091264838	       -0.0013364792	        0.0000000000	        0.0000000000	        0.0000000000	      -48.6511100337	      620.3429956323	       17.9022555521	        0.9475787430	        0.0000000000	       -0.0488924774	        0.0000000000	        0.0000000000	        0.0000000000	        0.0000000000	        0.0000000000	        0.0000000000	
